<svg xmlns="http://www.w3.org/2000/svg" viewBox="0 0 404 450">
    <title>Coriolan Lion</title>
    <g fill="none" fill-rule="evenodd">
        <path fill="#fff" d="M368.924 230.728s-2.638 5.833-5.92 7.036c-3.265 1.203 1.164 6.227 1.308 6.256.116.01 7.905 8.76 8.79 9.79 0 0 8.08-12.264.887-23.236 0 0-2.46-1.77-5.07.154h.004zm15.472-32.88c-.01.126-.26 4.88-2.378 9.145-1.483 2.945 3.9 4.052 3.9 4.052s6.95 1.126 17.09 6.092c0 0 2.56-14.35-15.694-21.608 0-.02-2.687-.91-2.918 2.32v-.002zM358.266 156s4.506 4.487 5.238 7.114c.664 2.416 4.17 2.175 4.17 2.175 0-.01 12.813-4.35 16.03-3.5 0 0-5.527-15.36-23.532-10.44 0 0-4.554 1.69-1.906 4.64v.01zM194.524 427.87s-5.228 3.685-8.655 3.08c-3.46-.617-2.16 5.967-2.06 6.044.08.077 2.39 11.55 2.65 12.868 0 0 13.18-6.477 12.5-19.587 0 0-1.23-2.772-4.45-2.406h.014zm32.244-18.47c-.067.114-2.33 4.29-6.094 7.246-2.6 2.012 1.79 5.342 1.79 5.342-.01-.02 5.825 3.966 12.815 12.81 0 0 8.48-11.876-4.9-26.275 0 0-2.03-1.943-3.62.877h.008zm-9.878-42.274s2.368 5.92 1.983 8.614c-.366 2.483 2.956 3.648 2.956 3.648s13.5 1.126 16.09 3.186c0 0 1.07-16.295-17.42-18.933 0-.01-4.87-.27-3.62 3.49l.01-.004zm117.268-35.247s-1.78 6.16-4.843 7.81c-3.08 1.65 2.04 5.99 2.157 5.99.125 0 9.07 7.52 10.1 8.43 0 0 6.267-13.28-2.427-23.13 0 0-2.686-1.41-4.987.88v.02zm9.705-34.62c.038.13.886 4.83-.24 9.46-.78 3.18 4.736 3.08 4.736 3.08s7.02-.51 17.99 2.01c0 0-.75-14.55-20.18-17.48 0 0-2.81-.25-2.31 2.92l.003.01zm-26.448-32.97s5.536 3.17 6.894 5.5c1.29 2.16 4.61 1.01 4.61 1.01s11.24-7.53 14.56-7.53c0 0-9.33-13.43-25.44-3.95 0-.03-3.95 2.79-.64 4.95l.015.02zm-9.464.89c-14.57-4.73-12.64 15.21-13.4 16.49-1.69 2.8-1.8 13.03-24.31 14.06-22.46 1.01-29.38 1.78-37.81 1.78-.01 0 1.68-7.48 4.78-17.78 5.2-17.2 12.15-42.27 5.44-53.77-10.73-18.42-38.59-4.86-39.11-4.6-.51.25-14.32 7.91-29.39 24.77 0 0 10.36 16.8 11.9 19.75-.01 0 6.51-10.03 17.25-5.69 10.75 4.35 8.45 15.6 9.2 24.27 0 0-4.85 17.13 2.05 36.55 6.91 19.41 22.5 19.15 22.5 19.15s-5.7-6.6-3.57-13.78c1.28-4.37 4.36-.79 4.36-.79 0-.02 7.14 16.86 24.54 14.56 0 0-7.38-6.64-5.12-15.34 1.53-5.87 5.38-1.78 5.38-1.78s9.45 20.43 27.59 14.8c0 0-8.24-3.45-6.63-13.78.51-3.32 5.62-2.57 6.91-1.28 1.27 1.28 2.04-.77 8.94 8.93 6.91 9.72 7.68 12.28 15.84 12.02 8.19-.26 13.3-12.78 13.3-12.78s1.53-5.36-1.53-9.71c-3.06-4.34-10.48-4.84-12.01-5.36-1.55-.51-3.33-1.78-.26-4.11 3.06-2.28 7.93 1.04 9.45 1.55 1.55.5 11.5 5.88 13.81-2.04 2.28-7.92 2.54-15.85-1.28-20.46-3.82-4.59-6.13-4.33-10.48-3.32-4.34 1.03-7.41 6.39-11.76 6.91-4.34.5-2.56-3.32-2.04-3.59.51-.26 7.91-5.74 9.2-7.4 0 0 8.36-11.12-13.69-18.28l-.05.05zm-141.2 153.46c-2.86-7.36-.26-12.01-2.83-19.94-2.56-7.93-6.13-8.18-8.16-7.4-2.05.77-5.89 0-11.5 14.55 0 0-12.78-25.3-1.29-34.49 0 0-5.61-6.14-17.89-5.88-12.27.25-20.45-17.89-20.45-17.89s10.44 3.4 20.19 1.4c5.57-1.13 1.29-4.22 1.29-4.22s-2.43-3.32-17.64-5.1c-12-1.43-15.85-18.66-15.85-18.66-.01 0 15.52 4.55 20.2 1.53 4.12-2.69-4.66-5.51-6.02-5.77-3.45-.64-22.61-6.39-23.37-19.93 0 0 9.08-3.59 26.84.38 16.65 3.7 28.38 5.36 33.73 5.36 5.38 0 5.88-3.56 4.35-5.62-1.52-2.05-8.18-12.27-10.22-28.63 0 0-39.88 36.55-78.73 6.91-16.73-12.77-38.77-37.19-6.9-88.16 3.83-6.14 9.72-17.12 1.52-29.65 0 0-3.99-7.93-14.81-5.62-9.37 1.98-10.48 12.52-5.62 21.2 0 0-22.09 2.06-23.52-24.27-1.25-23.5 22.75-26.58 22.75-26.58s34.77-7.67 37.84 26.32c0 0 9.92-24.78-21.21-31.94-8.1-1.87-22.99-8.94-28.64-13.8-4.5-3.9-33.35-23.01-13.4-52.89 0 0 .62 5.47 3.21 10.34 3.17 5.92 9.5 16.03 19.38 21.36 12.32 6.64 23.65 11.78 24.04 14.67 0 0 10.74-3.21-17.61-17.4-21.62-10.81-27.61-40.71-7.04-59.13 0-.02-2.63 29.13 15.99 38.19C57.13 63.56 70.94 75.63 73.5 79.97c0 0 6.78-5.37-17.64-21.46-16.52-10.896-16.11-38.597-.51-42.428 0 0-3.5 13.26 13.29 25.812 13.68 10.21 29.93 27.083 32.47 33.465 0 0 13.04 21.735-10.73 44.21 0 0 3.33 4.62 3.33 8.44 0 1.27 3.07 13.27-4.86 23.776 0 0 28.64-11.5 33.49 6.63 0 0 3.07 10.48-6.91 17.63 0 0-12.52-18.13-31.18-3.56 0 0 27.09-6.65 26.58 10.97 0 0 1.53 6.91-6.64 14.06 0 0-6.4-12.265-27.36-6.644 0 0 26.83.25 22.76 20.954 0 0-1.67 8.814-11 13.28 0 0 .34-9.085-9.87-10.24-4.29-.48-9.34-.18-14.79 4.37-6.08 5.08-6.34 14.16-4.53 21.33 1.6 6.323 4.93 11.08 5.3 11.492.9 1.05 12.34 21.09 45.37 8.83 4.32-1.62 10.89-6.79 15.37-12.76 26.94-36.02 33.46-78.85 33.46-78.85s10.09-2.05 19.18-13.16c0 0 4.74 7.79 4.48 15.72 0 0 24.03-1.54 27.98-21.34 0 0 20.85.635 31.57-13.157 0 0-3.82-3.08-4.09-3.34-.04-.04 7.29.11 14.57-4.71 1.1-.72 10.86 25.06 11.38 29.13.76 5.89 12.83 14.13 53.43 22.49 0 0 18.15 3.58 17.38-11.76 0 0-.24-10.86 10.475-12.97 10.74-2.12 15.6 12.46 15.6 12.46 1.54 5.36.76 8.947-6.38 11.757-7.164 2.82-1.8 5.62.5 4.85 2.3-.76 8.68-6.9 16.09-3.06 7.42 3.83 6.9 12.52 7.16 14.04.26 1.54.52 12.28-8.43 14.58 0 0-4.42 1.75-8.06-1.413-4.723-4.1-13.41-3.2-13.41-3.2s1.8 4.61 10.988 5.88c9.194 1.29 7.144 11.51 6.64 12.257-.51.77-3.562 12.53-15.6 12.79-12.003.26-16.35-12.02-16.87-13.53-.49-1.55-2.55-8.7-8.18-9.47-5.62-.75-5.36 4.33-5.36 4.33s0 7.43 1.55 10.75c0 0-14.073 3.84-21.23-21.97 0 0-4.85-7.91-13.55 3.83-8.7 11.754-27.09 2.56-27.35-2.04 0 0 10.54-1.74 10.978-10.21.27-4.86-3.56-3.59-4.32-2.57-.77 1.03-16.11 16.873-30.93 6.65 0 0 5.296-7.37 8.675-11.23 3.65-4.17-1.46-4.88-3.26-4.41-3.22.8-59.62 7.2-71.89 39.92 0 0-5.87 6.89.52 19.42 6.4 12.53 25.56 27.595 25.82 82.274 0 0 1.28 9.47-11.25 6.14 0 0-16.242-2.56-31.2-9.45-6.64-3.06-5.11 3.31-4.86 3.07.26-.27 3.58 17.63 20.96 32.7 0 0 2.8 5.89 23.01 1.78 0 0 14.57-7.91 18.65 2.31 0 0 1.8 4.86 2.82 10.48 1.03 5.62-.52 8.37-10.73 8.18-3.64-.05-2.3 3.63 0 3.32.25-.04 18.69-.76 20.96 6.9.89 3.02 2.6 5.16-1.03 11.49-3.05 5.39-9.71 9.21-9.45 9.21.26 0-5.87 2.31-9.703-.76-.01-.01-7.16-5.12-9.45-10.48-3.382-7.9-5.12.25-3.59 2.56 1.54 2.29 13.12 7.85 3.64 15.46 0 0-19.992 14.63-26.88-3.19l-.1.055zM313.97 19.23s-9.71 2.55-12.51 1.79c-2.83-.77-2.05-3.07-2.05-3.07S297.84 6.12 310.91.82c2.17-.87 5.28 12.31 4.6 14.83-.06.23 0 2.8-1.53 3.57l-.01.01zm32.72 3.83s6.9 2.56 8.71 6.38c1.78 3.84 5.88-.24 5.88-.24s5.38-7.17 11.76-11.51c6.4-4.34-19.34-8.11-26.07-.26-4.6 5.37-1.03 5.11-.26 5.62l-.02.01zm28.64 34.49s-3.84 3.07-1.8 15.34c0 0 .27 1.78 4.34 2.81 4.1 1.02 6.16 2.55 14.07 3.58 7.93 1.02-11.75-20.45-11.75-20.45s-3.57-2.04-4.85-1.28h-.01zM258.77 131.8s7.8 16.604 9.07 24.265c0 0 1.107 4.39 4.85 4.523 6.365.21 17.07-6.02 19.555-16.9 0 0 2.32 10.98 10.476 16.59 0 0 16.39-10.73 5.38-35.51 0 0 1.28-6.15 6.92 1.01 5.61 7.16 8.95 7.662 9.45 7.662 0 0 12.01-12.003.76-28.875 0 0-.5-3.57 2.57-3.82 0-.01 21.22 3.313 24.79-8.18 0 0-3.2-5.303-15.47-7.863 0 0-.94.03-1.45-.703-.97-1.39.17-3.4 3.26-2.99 0 0 29.4 2.74 30.8-10.54 0 0 .7-3.14.18-7.86-.35-3.34-2.48-8.9-6.06-10.42-3.58-1.54-16.87 3.07-16.87 3.07s12.27-8.18 9.71-16.09c-2.56-7.93-7.92-12.52-13.81-12.78-5.87-.26-8.93 2.05-10.98 4.85-2.04 2.82-3.57 5.11-4.08 11.23-.51 6.15-4.85-2.81-3.83-5.86 1.01-3.05 2.55-12.28-3.59-13.55-6.12-1.28-16.48-1.39-19.17 4.6-2.37 5.35-3.07 10.24-.27 19.43 4.03 13.1 9.47 11.87 4.87 28.86-5.41 20-47.27 55.85-47.03 55.85h-.03zm-55.34-82.553s-4.054 3.773 1.53 8c4.775 3.59 13.68 1.086 15.327 1.086 1.687 0 7.82.106 18.67 5.486 10.87 5.36 28.51 3.07 32.976-.51 0 0 20.2-10.99 1.79-38.6 0 0-5.9-6.61-9.714 0-.27.47-.8 3.59-.65 4.99 1.11 9.15-10.21 17.49-24.15 17.11-13.94-.39-32.66-2.23-35.79 2.42l.01.017zm23.135-29.635s-19.68-2.358-24.802-1.78c-2.29.24-3.444.702-4.734 2.155-1.28 1.504-2.5 5.498-6.11 8.588-3.43 2.927-9.62 5.506-12.36 6.247-7.71 2.03-9.08-2.05-9.2-2.05-.14 0-2.04-3.7 2.42-5.62 4.47-1.93 5.7-.14 13.09-.65 7.41-.5 7.67-4.468 7.67-4.468s2.3-4.987.25-11.377c-2.03-6.38-9.19-5.738-10.22-5.61-1.01.122-20.43-2.938-34.76 5.36 0 0-13.93-6.508-24.03-3.83 0 0-4.6 8.573 2.81 25.302 0 0-6.14 4.83-8.95 13.54-2.8 8.67-5.5 11.49-7.14 12.39-1.66.87 6.52 9.56 12.29 11.23-.02 0-5.92 11.63-5.77 25.29 0 0 7.79 2.82 14.05 1.92 0 0-5.87 10.85-6.38 24.27 0 0 5.87 1.91 14.94.39 0 0-2.94 14.06-1.93 22.36 0 0 7.16 4.09 15.21-.64 8.05-4.74.52 8.93.52 8.93s-4.34 7.54-7.02 13.93c0 0 11.62 3.33 19.54-4.09 7.91-7.41 12.91-11.12 12.91-11.12s6.78 6.39 7.16 16.74c-.01 0 22.99-2.67 18.9-22.35 0 0 17.25 5.88 30.67-7.02 0 0-6-2.18-4.33-6.92 0 0 25.54 1.92 26.83-18.15 0 0-17.77-5.75-24.93-3.2 0 0 8.05-7.02 8.82-14.44 0 0-12.87-1.61-16.93-2.22-9.36-1.42-17.42-3.28-19.78-6.34-2.07-2.68-4-3.44-5.78-3.51-3.83-.16-3.14.07-4.93.3-2.89.38-13.66.57-23.4-.5-6.18-.7-10.4-4.7-10.73-6.79-.02-.12-.42-3.04 3.2-1.77 3.15 1.09.82 3.58 9.96 5.28 3.91.75 14.12 1.22 26.84.12 0 0 3.18-.06 7.55 1.1 4.33 1.16 8.17-.51 8.17-.38 0 .12 10.23-.65 11.5-13.54 0 0 1.66-4.99-5.87-3.98 0 0-17.01 2.24-22-2.12 0 0-1.88-.89-3.13-5.3-1.147-3.99-.14-9.17 9.28-12.01 0 0 8.55-1.79 13.16-.39 4.593 1.4 10.6-.38 10.86-4.46.25-4.09 2.93-17.9-3.45-18.92l.065.102z"/>
    </g>
</svg>
