<svg viewBox="0 0 404 450" xmlns="http://www.w3.org/2000/svg">
    <title>Coriolan UI Lion</title>
    <path fill="#fff" d="M390.924 230.728s-2.638 5.833-5.92 7.036c-3.265 1.203 1.164 6.227 1.308 6.256.116.01 7.905 8.76 8.79 9.79 0 0 8.08-12.264.887-23.236 0 0-2.46-1.77-5.07.154zm15.472-32.88c-.01.126-.26 4.88-2.378 9.145-1.483 2.945 3.9 4.052 3.9 4.052s6.95 1.126 17.09 6.092c0 0 2.56-14.35-15.694-21.608 0-.02-2.687-.91-2.918 2.32zM380.266 156s4.506 4.487 5.238 7.114c.664 2.416 4.17 2.175 4.17 2.175 0-.01 12.813-4.35 16.03-3.5 0 0-5.527-15.36-23.532-10.44 0 0-4.554 1.69-1.906 4.64zM216.524 427.87s-5.228 3.685-8.655 3.08c-3.46-.617-2.16 5.967-2.06 6.044.08.077 2.39 11.55 2.65 12.868 0 0 13.18-6.477 12.5-19.587 0 0-1.23-2.772-4.45-2.406zm32.244-18.47c-.067.114-2.33 4.29-6.094 7.246-2.6 2.012 1.79 5.342 1.79 5.342-.01-.02 5.825 3.966 12.815 12.81 0 0 8.48-11.876-4.9-26.275 0 0-2.03-1.943-3.62.877zm-9.878-42.274s2.368 5.92 1.983 8.614c-.366 2.483 2.956 3.648 2.956 3.648s13.5 1.126 16.09 3.186c0 0 1.07-16.295-17.42-18.933 0-.01-4.87-.27-3.62 3.49zm117.268-35.247s-1.78 6.16-4.843 7.81c-3.08 1.65 2.04 5.99 2.157 5.99.125 0 9.07 7.52 10.1 8.43 0 0 6.267-13.28-2.427-23.13 0 0-2.686-1.41-4.987.88zm9.705-34.62c.038.13.886 4.83-.24 9.46-.78 3.18 4.736 3.08 4.736 3.08s7.02-.51 17.99 2.01c0 0-.75-14.55-20.18-17.48 0 0-2.81-.25-2.31 2.92zm-26.448-32.97s5.536 3.17 6.894 5.5c1.29 2.16 4.61 1.01 4.61 1.01s11.24-7.53 14.56-7.53c0 0-9.33-13.43-25.44-3.95 0-.03-3.95 2.79-.64 4.95zm-9.464.89c-14.57-4.73-12.64 15.21-13.4 16.49-1.69 2.8-1.8 13.03-24.31 14.06-22.46 1.01-29.38 1.78-37.81 1.78-.01 0 1.68-7.48 4.78-17.78 5.2-17.2 12.15-42.27 5.44-53.77-10.73-18.42-38.59-4.86-39.11-4.6-.51.25-14.32 7.91-29.39 24.77 0 0 10.36 16.8 11.9 19.75-.01 0 6.51-10.03 17.25-5.69 10.75 4.35 8.45 15.6 9.2 24.27 0 0-4.85 17.13 2.05 36.55 6.91 19.41 22.5 19.15 22.5 19.15s-5.7-6.6-3.57-13.78c1.28-4.37 4.36-.79 4.36-.79 0-.02 7.14 16.86 24.54 14.56 0 0-7.38-6.64-5.12-15.34 1.53-5.87 5.38-1.78 5.38-1.78s9.45 20.43 27.59 14.8c0 0-8.24-3.45-6.63-13.78.51-3.32 5.62-2.57 6.91-1.28 1.27 1.28 2.04-.77 8.94 8.93 6.91 9.72 7.68 12.28 15.84 12.02 8.19-.26 13.3-12.78 13.3-12.78s1.53-5.36-1.53-9.71c-3.06-4.34-10.48-4.84-12.01-5.36-1.55-.51-3.33-1.78-.26-4.11 3.06-2.28 7.93 1.04 9.45 1.55 1.55.5 11.5 5.88 13.81-2.04 2.28-7.92 2.54-15.85-1.28-20.46-3.82-4.59-6.13-4.33-10.48-3.32-4.34 1.03-7.41 6.39-11.76 6.91-4.34.5-2.56-3.32-2.04-3.59.51-.26 7.91-5.74 9.2-7.4 0 0 8.36-11.12-13.69-18.28zm-141.2 153.46c-2.86-7.36-.26-12.01-2.83-19.94-2.56-7.93-6.13-8.18-8.16-7.4-2.05.77-5.89 0-11.5 14.55 0 0-12.78-25.3-1.29-34.49 0 0-5.61-6.14-17.89-5.88-12.27.25-20.45-17.89-20.45-17.89s10.44 3.4 20.19 1.41c5.57-1.13 1.29-4.22 1.29-4.22s-2.43-3.32-17.64-5.1c-12-1.42-15.85-18.65-15.85-18.65-.01 0 15.52 4.55 20.2 1.53 4.12-2.69-4.66-5.51-6.02-5.77-3.45-.64-22.61-6.39-23.37-19.93 0 0 9.08-3.59 26.84.38 16.65 3.69 28.38 5.36 33.73 5.36 5.38 0 5.88-3.57 4.35-5.62-1.52-2.06-8.18-12.27-10.22-28.63 0 0-39.88 36.55-78.73 6.91-16.73-12.77-38.77-37.19-6.9-88.16 3.83-6.14 9.72-17.13 1.52-29.66 0 0-3.99-7.92-14.81-5.61-9.37 1.98-10.48 12.52-5.62 21.2 0 0-22.09 2.06-23.52-24.28C30.8 125.27 54.8 122.2 54.8 122.2s34.766-7.67 37.838 26.315c0 0 9.92-24.786-21.21-31.938-8.104-1.867-22.99-8.94-28.64-13.8-4.514-3.89-33.354-23-13.406-52.888 0 0 .616 5.48 3.206 10.34 3.167 5.92 9.493 16.03 19.38 21.37C64.266 88.26 75.6 93.4 75.996 96.29c0 0 10.733-3.205-17.62-17.393-21.626-10.81-27.61-40.717-7.04-59.13 0-.02-2.637 29.136 15.984 38.193 11.75 5.688 25.57 17.757 28.12 22.098 0 0 6.78-5.37-17.64-21.464-16.52-10.894-16.11-38.596-.51-42.427 0 0-3.5 13.264 13.29 25.815 13.68 10.212 29.928 27.084 32.47 33.466 0 0 13.037 21.733-10.735 44.207 0 0 3.33 4.62 3.33 8.44-.01 1.272 3.063 13.274-4.86 23.775 0 0 28.633-11.502 33.485 6.632 0 0 3.07 10.48-6.906 17.633 0 0-12.528-18.134-31.187-3.56 0 0 27.09-6.652 26.58 10.97 0 0 1.53 6.912-6.645 14.054 0 0-6.394-12.27-27.354-6.65 0 0 26.835.25 22.76 20.95 0 0-1.673 8.81-11.003 13.28 0 0 .338-9.09-9.867-10.24-4.298-.48-9.34-.18-14.79 4.37-6.087 5.08-6.347 14.16-4.537 21.33 1.6 6.32 4.93 11.08 5.3 11.49.9 1.05 12.34 21.1 45.37 8.83 4.33-1.62 10.89-6.79 15.37-12.77 26.94-36.02 33.46-78.85 33.46-78.85s10.09-2.05 19.18-13.16c0 0 4.74 7.79 4.48 15.72 0 0 24.04-1.54 27.98-21.34 0 0 20.85.63 31.57-13.16 0 0-3.82-3.08-4.09-3.34-.03-.04 7.29.1 14.57-4.72 1.1-.72 10.86 25.06 11.38 29.12.76 5.89 12.83 14.13 53.43 22.49 0 0 18.15 3.58 17.38-11.76 0 0-.24-10.86 10.48-12.97 10.75-2.12 15.61 12.46 15.61 12.46 1.54 5.36.76 8.94-6.38 11.75-7.16 2.82-1.8 5.62.5 4.85 2.3-.76 8.68-6.9 16.09-3.06 7.42 3.83 6.9 12.52 7.16 14.04.26 1.54.52 12.28-8.43 14.58 0 0-4.42 1.75-8.05-1.42-4.73-4.1-13.41-3.2-13.41-3.2s1.8 4.61 10.99 5.88c9.19 1.29 7.14 11.51 6.64 12.25-.51.77-3.56 12.53-15.6 12.79-12 .26-16.34-12.02-16.86-13.53-.49-1.55-2.55-8.7-8.18-9.47-5.625-.75-5.365 4.33-5.365 4.33s0 7.43 1.55 10.74c0 0-14.074 3.84-21.23-21.978 0 0-4.85-7.91-13.545 3.83-8.7 11.75-27.09 2.56-27.35-2.04 0 0 10.54-1.74 10.972-10.21.27-4.86-3.563-3.59-4.324-2.57-.77 1.03-16.102 16.872-30.92 6.65 0 0 5.3-7.37 8.68-11.23 3.65-4.17-1.46-4.88-3.254-4.41-3.22.8-59.625 7.2-71.89 39.915 0 0-5.87 6.89.52 19.43 6.39 12.53 25.55 27.59 25.81 82.27 0 0 1.28 9.47-11.243 6.14 0 0-16.24-2.56-31.194-9.45-6.633-3.06-5.1 3.31-4.85 3.07.26-.27 3.58 17.62 20.96 32.695 0 0 2.8 5.89 23.01 1.78 0 0 14.57-7.91 18.65 2.31 0 0 1.8 4.86 2.82 10.48 1.03 5.62-.52 8.366-10.74 8.18-3.64-.054-2.3 3.63 0 3.32.25-.044 18.69-.76 20.96 6.905.89 3.016 2.6 5.16-1.03 11.486-3.05 5.39-9.712 9.21-9.452 9.21.26 0-5.87 2.31-9.705-.76-.01-.01-7.166-5.12-9.457-10.48-3.39-7.91-5.12.25-3.59 2.56 1.54 2.29 13.11 7.84 3.64 15.45 0 0-20 14.63-26.88-3.2zm147.22-399.4s-9.71 2.55-12.51 1.79c-2.83-.77-2.05-3.07-2.05-3.07S319.83 6.12 332.9.83c2.164-.866 5.274 12.31 4.6 14.832-.068.23 0 2.8-1.53 3.57zm32.72 3.83s6.9 2.56 8.71 6.38c1.78 3.84 5.87-.24 5.87-.24s5.37-7.16 11.76-11.51c6.4-4.34-19.34-8.12-26.07-.26-4.6 5.37-1.03 5.11-.26 5.62zm28.64 34.49s-3.84 3.07-1.8 15.34c0 0 .27 1.78 4.34 2.81 4.1 1.02 6.16 2.55 14.06 3.58 7.93 1.02-11.75-20.46-11.75-20.46s-3.57-2.04-4.85-1.28zm-116.57 74.25s7.8 16.6 9.07 24.26c0 0 1.11 4.39 4.85 4.52 6.37.21 17.07-6.02 19.56-16.9 0 0 2.32 10.98 10.48 16.59 0 0 16.39-10.73 5.38-35.51 0 0 1.28-6.15 6.92 1.01 5.61 7.16 8.95 7.66 9.45 7.66 0 0 12.02-12.01.76-28.88 0 0-.5-3.57 2.57-3.82 0-.01 21.22 3.31 24.79-8.18 0 0-3.19-5.31-15.47-7.87 0 0-.93.03-1.45-.7-.97-1.39.16-3.4 3.25-3 0 0 29.4 2.74 30.8-10.54 0 0 .7-3.14.18-7.86-.35-3.34-2.48-8.9-6.06-10.42-3.58-1.54-16.87 3.07-16.87 3.07s12.27-8.18 9.71-16.09c-2.56-7.93-7.92-12.52-13.81-12.78-5.87-.26-8.93 2.05-10.98 4.85-2.04 2.82-3.57 5.11-4.08 11.23-.51 6.15-4.85-2.81-3.83-5.86 1.01-3.06 2.55-12.29-3.59-13.56-6.12-1.28-16.48-1.4-19.17 4.6-2.36 5.34-3.07 10.23-.27 19.42 4.03 13.1 9.47 11.88 4.88 28.86-5.41 20-47.272 55.853-47.03 55.853zm-55.35-82.55s-4.05 3.77 1.53 7.99c4.78 3.59 13.68 1.09 15.33 1.09 1.68 0 7.82.1 18.67 5.48 10.87 5.36 28.51 3.07 32.98-.51 0 0 20.2-10.99 1.79-38.6 0 0-5.9-6.61-9.71 0-.27.47-.8 3.59-.64 4.99 1.11 9.16-10.2 17.5-24.14 17.12-13.93-.38-32.66-2.22-35.78 2.43zm23.14-29.64s-19.68-2.36-24.8-1.78c-2.29.24-3.44.7-4.73 2.15-1.28 1.5-2.49 5.49-6.1 8.58-3.42 2.92-9.61 5.5-12.35 6.24-7.71 2.03-9.08-2.05-9.19-2.05-.13 0-2.04-3.7 2.43-5.62 4.48-1.93 5.7-.14 13.1-.65 7.42-.5 7.68-4.47 7.68-4.47s2.3-4.99.25-11.38c-2.03-6.38-9.19-5.74-10.22-5.61-1.01.12-20.43-2.94-34.76 5.36 0 0-13.93-6.51-24.03-3.83 0 0-4.6 8.57 2.81 25.3 0 0-6.14 4.83-8.95 13.54-2.8 8.67-5.49 11.49-7.14 12.39-1.66.87 6.52 9.56 12.29 11.23-.02 0-5.91 11.62-5.77 25.29 0 0 7.79 2.82 14.05 1.92 0 0-5.863 10.85-6.373 24.27 0 0 5.87 1.9 14.94.38 0 0-2.94 14.06-1.925 22.36 0 0 7.16 4.09 15.21-.64 8.05-4.74.52 8.93.52 8.93s-4.34 7.54-7.02 13.92c0 0 11.62 3.33 19.545-4.09 7.91-7.4 12.91-11.12 12.91-11.12s6.78 6.396 7.16 16.74c-.01 0 22.994-2.664 18.9-22.35 0 0 17.255 5.88 30.676-7.01 0 0-6-2.178-4.33-6.92 0 0 25.54 1.922 26.83-18.14 0 0-17.767-5.75-24.93-3.2 0 0 8.05-7.015 8.82-14.436 0 0-12.87-1.61-16.927-2.225-9.36-1.414-17.426-3.27-19.785-6.333-2.07-2.67-4-3.43-5.78-3.5-3.83-.154-3.135.077-4.926.31-2.89.386-13.65.58-23.395-.5-6.17-.69-10.4-4.697-10.73-6.785-.02-.117-.42-3.04 3.2-1.77 3.16 1.095.83 3.58 9.965 5.28 3.92.754 14.127 1.225 26.84.13 0 0 3.19-.06 7.56 1.095 4.325 1.16 8.167-.51 8.167-.38 0 .12 10.23-.65 11.5-13.545 0 0 1.67-4.985-5.86-3.974 0 0-17.015 2.242-22-2.118 0 0-1.88-.89-3.13-5.297-1.15-3.982-.146-9.16 9.28-12 0 0 8.55-1.79 13.16-.384 4.59 1.41 10.6-.37 10.86-4.458.25-4.09 2.93-17.903-3.455-18.923z"/>
</svg>
