<svg xmlns="http://www.w3.org/2000/svg" viewBox="0 0 2856.857 790">
    <title>GitHub Logo</title>
    <g fill="none" fill-rule="evenodd">
        <path fill="#fff" d="M552.73 332.135H311.557c-6.205 0-11.25 5.045-11.25 11.297V461.32c0 6.25 5.045 11.27 11.25 11.27h94.11v146.543s-21.146 7.057-79.497 7.057c-68.914 0-165.156-25.244-165.156-236.795 0-211.642 100.197-239.49 194.307-239.49 81.47 0 116.52 14.303 138.87 21.24 7.01 2.203 13.41-4.83 13.41-11.105l26.95-113.91c0-2.912-1.04-6.417-4.26-8.785C521.19 30.952 465.87 0 326.17 0 165.133 0 0 68.487 0 397.757 0 726.98 189.05 776 348.38 776c131.884 0 212.022-56.314 212.022-56.314 3.268-1.8 3.6-6.395 3.6-8.48V343.433c-.047-6.205-5.115-11.297-11.272-11.297zm1219.65-304h-135.694c-6.252 0-11.27 5.043-11.27 11.295v262.393h-211.62V39.43c0-6.252-5.068-11.296-11.178-11.296H1266.78c-6.11 0-11.084 5.044-11.084 11.296v710.473c0 6.3 5.02 11.32 11.084 11.32h135.838c6.203 0 11.178-5.068 11.178-11.32V446.067h211.62l-.476 303.883c0 6.3 5.02 11.272 11.084 11.272h135.885c6.25 0 11.13-5.068 11.13-11.272l.47-710.52c.09-6.252-4.98-11.296-11.13-11.296zm-1057.43 16.1c-48.358 0-87.575 39.573-87.575 88.404 0 48.85 39.217 88.42 87.574 88.42s87.52-39.57 87.52-88.43c0-48.83-39.17-88.41-87.53-88.41zm77.91 227.89c0-6.205-5.02-11.344-11.13-11.344H646.32c-6.348 0-11.746 6.4-11.746 12.67v469.87c0 13.74 8.572 17.91 19.703 17.91h121.96c13.31 0 16.813-6.53 16.813-18.19-.094-25.19-.094-123.81-.094-142.94-.095-18.18-.095-327.96-.095-327.96zm1505.113-10.28h-134.7c-6.16 0-11.085 5.094-11.085 11.346V621.5s-34.244 25.198-82.934 25.198c-48.547 0-61.525-22.025-61.525-69.72V273.145c0-6.252-5.07-11.345-11.14-11.345h-136.64c-6.25 0-11.18 5.093-11.18 11.345v326.807c0 141.284 78.76 175.906 186.99 175.906 88.85 0 160.61-49.115 160.61-49.115s3.36 25.766 5.06 28.844c1.422 3.078 5.447 6.158 9.852 6.158h86.58c6.157 0 11.177-5.07 11.177-11.32l.38-477.28c-.28-6.206-5.3-11.297-11.46-11.297zm368.96-16.007c-76.54 0-128.593 34.147-128.593 34.147V39.43c0-6.252-5.068-11.296-11.13-11.296h-136.265c-6.11 0-11.13 5.044-11.13 11.296l-.38 710.52c0 6.3 5.068 11.273 11.225 11.273h94.87c4.214 0 7.388-2.18 9.804-5.968 2.37-3.837 5.73-32.775 5.73-32.775s55.557 52.763 161.035 52.763c123.8 0 194.75-62.804 194.75-281.906 0-218.82-113.39-247.498-189.93-247.498zm-53.142 400.385c-46.7-1.42-78.34-22.64-78.34-22.64v-225.07s31.31-19.206 69.68-22.593c48.55-4.31 95.44 10.326 95.44 126.13-.24 122.007-21.36 146.114-86.77 144.173zm-1428.66-2.558c-5.97 0-21.22 2.368-36.85 2.368-49.92 0-66.97-23.256-66.97-53.33v-199.85h101.93c6.26 0 11.18-5.045 11.18-11.344V272.03c.1-6.298-4.92-11.343-11.18-11.343h-101.93l-.14-134.535c0-5.092-2.7-7.625-8.57-7.625H933.86c-5.35 0-8.335 2.39-8.335 7.578V265.14s-69.576 16.79-74.266 18.188c-4.65 1.326-8.06 5.684-8.06 10.822v87.408c0 6.252 5.07 11.344 11.18 11.344h71.14v210.222c0 156.11 109.55 171.455 183.44 171.455 33.72 0 74.07-10.99 80.85-13.36 4.07-1.42 6.39-5.64 6.39-10.14l.04-96.1c0-6.3-5.255-11.42-11.13-11.32z"/>
    </g>
</svg>
